Coordinates
version=1
nRows=13
nColumns=27
inDegrees=yes

Units are S.I. units (second, meters, Newtons, ...)
If the header above contains a line with 'inDegrees', this indicates whether rotational values are in degrees (yes) or radians (no).

endheader
time	pelvis_rotation	pelvis_tilt	pelvis_list	pelvis_tx	pelvis_ty	pelvis_tz	hip_flexion_r	hip_adduction_r	hip_rotation_r	knee_angle_r	knee_rotation_r	knee_adduction_r	knee_angle_r_beta	ankle_angle_r	subtalar_angle_r	mtp_angle_r	hip_flexion_l	hip_adduction_l	hip_rotation_l	knee_angle_l	knee_rotation_l	knee_adduction_l	knee_angle_l_beta	ankle_angle_l	subtalar_angle_l	mtp_angle_l
      4.78500000	      7.53522515	    -30.19143535	      1.89644269	     -0.00990870	      0.43428127	     -1.15050695	    129.67532739	    -48.68773988	     30.30581452	    109.39354149	      0.00000000	      9.93608288	      1.90927748	     14.31476548	      0.00000000	      0.00000000	    127.72011348	    -36.88455929	     19.98730546	    104.90226290	      0.00000000	     -9.94922701	      1.83088988	      9.29963215	      0.00000000	      0.00000000
      4.79000000	      7.55027890	    -30.09212482	      1.85015350	     -0.00958075	      0.43300550	     -1.15057627	    129.73676742	    -48.68224899	     30.48613358	    109.55674758	      0.00000000	      9.93617768	      1.91212596	     14.36365346	      0.00000000	      0.00000000	    127.85943205	    -36.81608472	     20.19007663	    105.08875783	      0.00000000	     -9.94932374	      1.83414483	      9.32897678	      0.00000000	      0.00000000
      4.79500000	      7.57300334	    -29.99155449	      1.79215002	     -0.00927310	      0.43176034	     -1.15064935	    129.78093248	    -48.69396935	     30.64846167	    109.70868171	      0.00000000	      9.93624159	      1.91477771	     14.39055366	      0.00000000	      0.00000000	    127.98896091	    -36.72671565	     20.39829316	    105.26259799	      0.00000000	     -9.94941030	      1.83717891	      9.39402713	      0.00000000	      0.00000000
      4.80000000	      7.58076233	    -29.88060547	      1.74476149	     -0.00896880	      0.43056627	     -1.15073538	    129.82007762	    -48.69190204	     30.81498460	    109.85341792	      0.00000000	      9.93631835	      1.91730384	     14.43299414	      0.00000000	      0.00000000	    128.10242788	    -36.67154630	     20.58553286	    105.43893419	      0.00000000	     -9.94949737	      1.84025656	      9.45278161	      0.00000000	      0.00000000
      4.80500000	      7.60596197	    -29.79732608	      1.68205765	     -0.00869931	      0.42939963	     -1.15081983	    129.87028734	    -48.71814813	     30.95664395	    109.99527418	      0.00000000	      9.93641731	      1.91977970	     14.47255161	      0.00000000	      0.00000000	    128.25490959	    -36.58925275	     20.78103157	    105.61389475	      0.00000000	     -9.94960005	      1.84331020	      9.51000238	      0.00000000	      0.00000000
      4.81000000	      7.60781046	    -29.73147266	      1.65698356	     -0.00846868	      0.42827264	     -1.15088103	    129.97583753	    -48.69463662	     31.13709623	    110.13492544	      0.00000000	      9.93649331	      1.92221707	     14.48693799	      0.00000000	      0.00000000	    128.38848032	    -36.55792511	     20.94251681	    105.76256045	      0.00000000	     -9.94969368	      1.84590491	      9.53267432	      0.00000000	      0.00000000
      4.81500000	      7.63898389	    -29.64005367	      1.60511074	     -0.00823379	      0.42718218	     -1.15095589	    130.03007279	    -48.73800929	     31.28432719	    110.25919660	      0.00000000	      9.93656389	      1.92438601	     14.51788890	      0.00000000	      0.00000000	    128.51314595	    -36.48246835	     21.11196710	    105.91273374	      0.00000000	     -9.94980076	      1.84852592	      9.53661446	      0.00000000	      0.00000000
      4.82000000	      7.62222917	    -29.53344845	      1.42743195	     -0.00796778	      0.42624390	     -1.15095335	    129.87337345	    -48.81374990	     31.21779356	    110.37877071	      0.00000000	      9.93658134	      1.92647297	     14.58701313	      0.00000000	      0.00000000	    128.69211034	    -36.38181846	     21.41903486	    106.04769324	      0.00000000	     -9.94990719	      1.85088141	      9.54471067	      0.00000000	      0.00000000
      4.82500000	      7.64770602	    -29.57581520	      1.57077818	     -0.00791396	      0.42514370	     -1.15109202	    130.30792224	    -48.69759449	     31.62630745	    110.50462256	      0.00000000	      9.93678233	      1.92866950	     14.51435454	      0.00000000	      0.00000000	    128.83117988	    -36.45099869	     21.37440557	    106.19559739	      0.00000000	     -9.94999628	      1.85346283	      9.58860251	      0.00000000	      0.00000000
      4.83000000	      7.64893148	    -29.55974941	      1.53867040	     -0.00779735	      0.42419126	     -1.15116812	    130.44779692	    -48.69354784	     31.76631883	    110.61635392	      0.00000000	      9.93686264	      1.93061958	     14.51794892	      0.00000000	      0.00000000	    129.00954550	    -36.42938826	     21.51305602	    106.32239808	      0.00000000	     -9.95010348	      1.85567592	      9.60027632	      0.00000000	      0.00000000
      4.83500000	      7.65142017	    -29.53420471	      1.51344728	     -0.00766297	      0.42328061	     -1.15122630	    130.58202652	    -48.69661640	     31.90610352	    110.72747014	      0.00000000	      9.93694775	      1.93255893	     14.52664501	      0.00000000	      0.00000000	    129.17228844	    -36.42259836	     21.63517807	    106.44727885	      0.00000000	     -9.95021769	      1.85785550	      9.60094286	      0.00000000	      0.00000000
      4.84000000	      7.67416743	    -29.54228819	      1.50611672	     -0.00762663	      0.42242083	     -1.15130561	    130.76382519	    -48.70139932	     32.06713925	    110.82079872	      0.00000000	      9.93707101	      1.93418782	     14.51645331	      0.00000000	      0.00000000	    129.34423342	    -36.39310284	     21.72849433	    106.55847347	      0.00000000	     -9.95029621	      1.85979621	      9.59454848	      0.00000000	      0.00000000
      4.84500000	      7.66579120	    -29.55103722	      1.48022118	     -0.00756994	      0.42158561	     -1.15136970	    130.92037134	    -48.68825495	     32.18960294	    110.91542146	      0.00000000	      9.93715162	      1.93583930	     14.50222917	      0.00000000	      0.00000000	    129.53733610	    -36.39934657	     21.84171325	    106.67355519	      0.00000000	     -9.95038760	      1.86180476	      9.57545353	      0.00000000	      0.00000000
